# xmcd
#
# Track frame offsets:
#	150
#	28059
#	45598
#	75427
#	104916
#	116231
#	146575
#	176905
#	207812
#
# Disc length: 3164 seconds
#
# Revision: 1
# Processed by: cddbd v1.5.2PL0 Copyright (c) Steve Scherf et al.
# Submitted via: audiograbber 1.83.01
#
DISCID=800c5a09
DTITLE=Sparks - Bonus Tracks
DYEAR=1900
DGENRE=Rock
TTITLE0=Progress (Extended Club Mix) 
TTITLE1=Sparks In The Dark (Extended Club Mix) 
TTITLE2=With All My Might (Extended Club Mix) 
TTITLE3=Music That You Can Dance To (Club Version)
TTITLE4=Music That You Can Dance To (Mini Version) 
TTITLE5=Just Got Back From Heaven (Heaven Can Wait Mix) 
TTITLE6=Just Got Back From Heaven (Heaven Can Wait Dub) 
TTITLE7=Just Got Back From Heaven (Heaven Knows Mr. Allison Mix) 
TTITLE8=Just Got Back From Heaven (Angels With Dirty Faces Mix) 
EXTD=
EXTT0=
EXTT1=
EXTT2=
EXTT3=
EXTT4=
EXTT5=
EXTT6=
EXTT7=
EXTT8=
PLAYORDER=
